<?xml version="1.0" standalone="no"?>
<!DOCTYPE svg PUBLIC "-//W3C//DTD SVG 20010904//EN"
 "http://www.w3.org/TR/2001/REC-SVG-20010904/DTD/svg10.dtd">
<svg version="1.0" xmlns="http://www.w3.org/2000/svg"
 width="900.000000pt" height="550.000000pt" viewBox="0 0 900.000000 550.000000"
 preserveAspectRatio="xMidYMid meet">

<!-- Hair Path -->
<g transform="translate(0.000000,550.000000) scale(0.100000,-0.100000)"
fill="#fe5000" stroke="none">
<path d="M6950 5475 c-60 -64 -225 -117 -440 -141 -169 -19 -610 -18 -1190 2
-1193 41 -1816 -20 -2298 -226 -254 -108 -477 -280 -597 -460 -56 -85 -83
-106 -199 -160 -460 -211 -753 -605 -851 -1145 -22 -123 -31 -413 -16 -545 18
-161 56 -335 105 -482 72 -219 199 -557 206 -553 4 3 10 57 14 122 9 143 40
415 61 538 91 522 273 781 615 874 175 48 466 69 992 72 350 2 578 14 695 38
54 12 179 46 278 77 99 30 205 58 237 61 51 5 59 3 82 -20 34 -34 35 -99 3
-219 -13 -48 -22 -90 -20 -92 2 -2 61 25 131 59 296 147 544 230 807 270 133
21 409 16 520 -9 216 -49 428 -153 577 -284 364 -320 593 -732 834 -1501 22
-69 111 333 135 604 16 188 6 538 -20 710 -26 172 -44 254 -93 410 -74 238
-174 422 -305 556 l-74 76 35 99 c19 55 48 139 65 187 68 194 105 506 83 701
-10 90 -32 177 -51 198 -3 3 -67 -11 -141 -33 -191 -56 -243 -69 -248 -65 -2
3 10 25 28 51 46 67 69 126 76 194 8 68 0 75 -36 36z"/>
</g>

<!-- Glasses Path -->
<g transform="translate(0.000000,550.000000) scale(0.100000,-0.100000)"
fill="#fe5000" stroke="none">
<path d="M2630 1623 c-219 -3 -604 -22 -800 -39 -174 -14 -434 -49 -466 -61
-15 -5 -16 -24 -10 -182 12 -304 33 -463 67 -500 10 -10 37 -22 60 -26 85 -15
137 -96 221 -350 55 -163 81 -216 136 -271 79 -79 226 -123 562 -170 160 -22
796 -26 960 -6 303 37 475 91 561 176 51 51 100 148 157 318 28 81 65 174 83
208 57 107 215 230 317 246 100 16 300 -131 367 -270 18 -39 48 -118 65 -176
76 -248 152 -352 300 -410 213 -82 506 -115 960 -107 384 7 595 32 799 93 178
54 239 122 316 356 86 261 141 351 226 364 22 4 47 13 55 21 36 37 58 192 70
506 8 198 17 177 -86 196 -328 61 -1259 102 -1841 82 -499 -18 -585 -31 -824
-126 -213 -85 -257 -96 -390 -96 -132 0 -174 10 -390 95 -190 75 -215 82 -384
101 -139 17 -632 36 -826 33 -66 -2 -185 -3 -265 -5z m561 -143 c232 -10 367
-28 476 -61 253 -78 379 -249 359 -488 -8 -93 -50 -303 -77 -384 -70 -205
-173 -321 -335 -377 -124 -44 -227 -53 -649 -57 -433 -5 -571 4 -717 47 -290
86 -430 286 -468 670 -17 173 -1 300 51 400 82 159 223 228 514 250 151 11
602 11 846 0z m3591 -14 c122 -23 203 -54 268 -102 133 -100 182 -261 159
-524 -38 -458 -220 -659 -646 -715 -140 -18 -730 -21 -913 -4 -289 26 -449
104 -539 263 -63 111 -132 368 -147 542 -17 205 68 358 247 447 192 94 441
119 1144 111 252 -2 372 -7 427 -18z"/>
</g>
</svg>
